<svg width="46" height="46" fill="currentColor" viewBox="0 0 24 24" xmlns="http://www.w3.org/2000/svg">
  <path d="M15.75 10.125a.625.625 0 0 1 .625-.625h1.25a.625.625 0 0 1 .625.625v1.25a.624.624 0 0 1-.625.625h-1.25a.624.624 0 0 1-.625-.625v-1.25Z"></path>
  <path d="M6.375 2A.625.625 0 0 1 7 2.625v.625h10v-.625a.625.625 0 1 1 1.25 0v.625h1.25a2.5 2.5 0 0 1 2.5 2.5V19.5a2.5 2.5 0 0 1-2.5 2.5h-15A2.5 2.5 0 0 1 2 19.5V5.75a2.5 2.5 0 0 1 2.5-2.5h1.25v-.625A.625.625 0 0 1 6.375 2ZM3.25 7v12.5a1.25 1.25 0 0 0 1.25 1.25h15a1.25 1.25 0 0 0 1.25-1.25V7H3.25Z"></path>
</svg>